<?xml version="1.0" encoding="UTF-8"?>
<svg version="1.1" xmlns="http://www.w3.org/2000/svg" width="100" height="100">
<path d="M0 0 C26.4 0 52.8 0 80 0 C80 16.83 80 33.66 80 51 C81.65 51 83.3 51 85 51 C85 56.94 85 62.88 85 69 C55.3 69 25.6 69 -5 69 C-5 63.06 -5 57.12 -5 51 C-3.35 51 -1.7 51 0 51 C0 34.17 0 17.34 0 0 Z " fill="#52AEFE" transform="translate(10,17)"/>
<path d="M0 0 C11.55 0 23.1 0 35 0 C35 2.64 35 5.28 35 8 C41.6 8 48.2 8 55 8 C55 5.36 55 2.72 55 0 C66.55 0 78.1 0 90 0 C90 5.94 90 11.88 90 18 C60.3 18 30.6 18 0 18 C0 12.06 0 6.12 0 0 Z " fill="#0137FA" transform="translate(5,68)"/>
<path d="M0 0 C29.7 0 59.4 0 90 0 C90 0.99 90 1.98 90 3 C60.3 3 30.6 3 0 3 C0 2.01 0 1.02 0 0 Z " fill="#000000" transform="translate(5,83)"/>
<path d="M0 0 C1.2065625 0.0309375 1.2065625 0.0309375 2.4375 0.0625 C0.9578376 7.43757122 -1.21550448 14.44177265 -3.625 21.5625 C-3.98916016 22.65820312 -4.35332031 23.75390625 -4.72851562 24.8828125 C-7.42881944 32.92881944 -7.42881944 32.92881944 -8.5625 34.0625 C-10.22867115 34.10313832 -11.89638095 34.105221 -13.5625 34.0625 C-12.28401813 26.41173404 -10.10583276 19.2953994 -7.5 12 C-7.13583984 10.95650391 -6.77167969 9.91300781 -6.39648438 8.83789062 C-3.31008578 0.0807338 -3.31008578 0.0807338 0 0 Z " fill="#9FDFF1" transform="translate(55.5625,25.9375)"/>
<path d="M0 0 C0 1.65 0 3.3 0 5 C-2.97 6.32 -5.94 7.64 -9 9 C-4.545 10.98 -4.545 10.98 0 13 C0 14.98 0 16.96 0 19 C-6.4188547 17.26375242 -12.13784836 15.14819255 -18 12 C-18 10.02 -18 8.04 -18 6 C-15.56495491 4.9936345 -13.12729136 3.99473587 -10.6875 3 C-9.65206055 2.57074219 -9.65206055 2.57074219 -8.59570312 2.1328125 C-5.58454326 0.91089256 -3.28113016 0 0 0 Z " fill="#9FDEEF" transform="translate(38,34)"/>
<path d="M0 0 C4.17576168 0.68416434 7.88080407 2.01365009 11.8125 3.5625 C13.55466797 4.24505859 13.55466797 4.24505859 15.33203125 4.94140625 C16.21246094 5.29074219 17.09289062 5.64007813 18 6 C18 7.98 18 9.96 18 12 C12.08617325 14.8018492 6.369406 17.44303409 0 19 C0 17.02 0 15.04 0 13 C2.97 11.68 5.94 10.36 9 9 C4.545 7.02 4.545 7.02 0 5 C0 3.35 0 1.7 0 0 Z " fill="#A0DFEF" transform="translate(62,34)"/>
<path d="M0 0 C1.58973754 4.00028364 0.33088612 6.76078051 -1.0546875 10.69921875 C-1.27569122 11.33487259 -1.49669495 11.97052643 -1.72439575 12.6254425 C-2.19201237 13.96435436 -2.66469293 15.301507 -3.14208984 16.63696289 C-3.87493635 18.68732192 -4.59306838 20.74236793 -5.30859375 22.79882812 C-8.82618056 32.82618056 -8.82618056 32.82618056 -10 34 C-11.66617115 34.04063832 -13.33388095 34.042721 -15 34 C-15 33.01 -15 32.02 -15 31 C-13.35 31 -11.7 31 -10 31 C-9.79697266 30.15695313 -9.79697266 30.15695313 -9.58984375 29.296875 C-7.03498776 19.32222765 -3.46830754 9.68478984 0 0 Z " fill="#4B8FC4" transform="translate(57,30)"/>
<path d="M0 0 C0 0.99 0 1.98 0 3 C-2.43504509 4.0063655 -4.87270864 5.00526413 -7.3125 6 C-8.34793945 6.42925781 -8.34793945 6.42925781 -9.40429688 6.8671875 C-12.41545674 8.08910744 -14.71886984 9 -18 9 C-18 8.01 -18 7.02 -18 6 C-15.7536764 4.99095625 -13.50356063 3.9926398 -11.25 3 C-10.61578125 2.71382812 -9.9815625 2.42765625 -9.328125 2.1328125 C-5.91582896 0.63993298 -3.79218083 0 0 0 Z " fill="#3B79AC" transform="translate(80,47)"/>
<path d="M0 0 C4.48993869 0.58652352 8.22543184 1.7643538 12.375 3.5625 C13.43460938 4.01753906 14.49421875 4.47257812 15.5859375 4.94140625 C16.38257812 5.29074219 17.17921875 5.64007813 18 6 C18 6.99 18 7.98 18 9 C13.82423832 8.31583566 10.11919593 6.98634991 6.1875 5.4375 C5.02605469 4.98246094 3.86460938 4.52742188 2.66796875 4.05859375 C1.34732422 3.53458984 1.34732422 3.53458984 0 3 C0 2.01 0 1.02 0 0 Z " fill="#3977AC" transform="translate(20,47)"/>
<path d="M0 0 C0 0.99 0 1.98 0 3 C-3.78187881 4.83691257 -5.94568308 5.15837626 -10 4 C-9 2 -9 2 -6.6875 0.875 C-4 0 -4 0 0 0 Z " fill="#3E7CAE" transform="translate(38,40)"/>
<path d="M0 0 C1.48117801 0.28127421 2.95993249 0.57533732 4.4375 0.875 C5.67306641 1.11863281 5.67306641 1.11863281 6.93359375 1.3671875 C7.61550781 1.57601562 8.29742187 1.78484375 9 2 C9.33 2.66 9.66 3.32 10 4 C5.94568308 5.15837626 3.78187881 4.83691257 0 3 C0 2.01 0 1.02 0 0 Z " fill="#3C7AAE" transform="translate(62,40)"/>
<path d="M0 0 C0.33 0.99 0.66 1.98 1 3 C0 4 0 4 -2.5625 4.0625 C-3.7690625 4.0315625 -3.7690625 4.0315625 -5 4 C-5 3.01 -5 2.02 -5 1 C-3.35 0.67 -1.7 0.34 0 0 Z " fill="#3879AF" transform="translate(47,60)"/>
</svg>
